<?xml version="1.0" ?><svg data-name="Layer 1" id="Layer_1" viewBox="0 0 128 128" xmlns="http://www.w3.org/2000/svg"><defs><style>.cls-1{fill:#ffc298;}.cls-2{fill:#892e1d;}.cls-3{fill:#172a91;}.cls-4{fill:#2652e4;}.cls-5{fill:#bde5ec;}.cls-6{fill:#aa4628;}.cls-7{fill:#3b0b1b;}.cls-10,.cls-8{fill:none;}.cls-8{stroke:#e44450;stroke-miterlimit:10;stroke-width:6px;}.cls-9{fill:#e44450;}</style></defs><title/><path class="cls-1" d="M104.38,28.89l-.56,4.27s4.93,5,8-.16c-1.5-4.11-.28-6.61-.28-6.61l-.21-2.45-4.34.5Z"/><path class="cls-1" d="M107.49,29.63a9,9,0,0,0,4.33-5.69c.5-2.83.5-5.22-1.5-7.89s-9.72-2.11-10-1.66c-2,3.37-.45,12.15,1.29,14.48C103.14,30.91,107.49,29.63,107.49,29.63Z"/><path class="cls-2" d="M96.76,12.8a4,4,0,0,0,2.64,4.81c3.47,1.28,7.22-1.3,7.22-1.3a14.72,14.72,0,0,0,4.92,10.08c4.28-1.09,6.53-11.56-.69-15.15a9,9,0,0,0-11.76,2.49Z"/><path class="cls-1" d="M108.91,25s2-.62,2-2.36-1-2.42-3.57-1.28"/><path class="cls-1" d="M99,51c-.1,4.6-.29,9.21-.43,13.82l-.28,6.91q-.13,3.45-.32,6.91a2.36,2.36,0,0,1-4.7.08c-.21-2.3-.4-4.59-.57-6.89L92.19,65c-.31-4.6-.67-9.2-.94-13.8A3.89,3.89,0,0,1,99,50.73C99,50.83,99,50.94,99,51Z"/><rect class="cls-3" height="1.85" width="24.01" x="95.65" y="70.75"/><polygon class="cls-4" points="95.65 72.6 98.32 122.38 105.81 123.38 107.32 81.41 108.49 81.63 109.5 123.38 116.98 122.38 119.66 72.6 95.65 72.6"/><rect class="cls-5" height="24.3" width="24.01" x="95.65" y="46.45"/><path class="cls-1" d="M126,51.32c-.43,4.59-1,9.18-1.43,13.77L123.81,72q-.37,3.44-.81,6.88a2.36,2.36,0,0,1-4.7-.26q-.06-3.47-.07-6.92l0-6.93c0-4.61,0-9.23.06-13.84A3.9,3.9,0,1,1,126,51C126,51.11,126,51.22,126,51.32Z"/><path class="cls-5" d="M103.85,31h7.61a2.66,2.66,0,0,1,2.66,2.66v7.5a0,0,0,0,1,0,0H101.19a0,0,0,0,1,0,0v-7.5A2.66,2.66,0,0,1,103.85,31Z"/><path class="cls-5" d="M104.69,32.9h6.43a15,15,0,0,1,15,15V53a0,0,0,0,1,0,0H91.19a0,0,0,0,1,0,0V46.4A13.5,13.5,0,0,1,104.69,32.9Z"/><polygon class="cls-3" points="125.82 128 109.5 128 109.5 123.38 117.27 122.38 124.3 124.69 125.82 128"/><polygon class="cls-3" points="89.49 128 105.81 128 105.81 123.38 98.03 122.38 91 124.69 89.49 128"/><polygon class="cls-6" points="9.17 125.27 14.41 125.27 18.03 93.74 9.96 89.27 9.17 125.27"/><path class="cls-6" d="M32.6,49.81l.82,27.66a1.77,1.77,0,0,1-3.51.35L25.25,50.54a3.7,3.7,0,1,1,7.3-1.25A3.05,3.05,0,0,1,32.6,49.81Z"/><polygon class="cls-5" points="1.77 128.01 14.77 128.01 14.77 123.39 9.32 123.39 4.09 125.75 1.77 128.01"/><polygon class="cls-6" points="33.35 125.27 28.11 125.27 24.49 93.74 32.57 89.27 33.35 125.27"/><path class="cls-5" d="M33.72,101.86H4.35C11.9,91,7.17,69,12.91,63.29H30.45Z"/><circle class="cls-7" cx="14.01" cy="34.29" r="4.77"/><circle class="cls-7" cx="23.32" cy="21.71" r="4.77"/><circle class="cls-7" cx="15.88" cy="21.71" r="4.77"/><circle class="cls-7" cx="11.9" cy="27.35" r="4.77"/><path class="cls-6" d="M25.26,23.64s2.37,8.65.89,10.87-9.36.42-9.36.42a13.58,13.58,0,0,1-.62-2.81c-.1-.7-.2-1.54-.27-2.53C15.6,25.72,20.65,18.15,25.26,23.64Z"/><polygon class="cls-6" points="17.08 40.73 23.03 41.03 21.26 33.3 15.88 28.67 17.08 40.73"/><path class="cls-4" d="M30.63,63.37H12.83l-.93-15A9.37,9.37,0,0,1,21.26,39h0a9.37,9.37,0,0,1,9.37,9.37Z"/><path class="cls-7" d="M26,25.33c-1.09.49-5.05-.89-5.05-.89a1.75,1.75,0,0,1,0,2.37A4,4,0,0,1,18,28.4S15.15,31,17,32.12s1.87,4.76-.2,6a8,8,0,0,1-4-6.57L13,26l1.49-3.17,3.47-1.49,5.1-.29,2.52-.79Z"/><polygon class="cls-5" points="40.75 128.01 27.76 128.01 27.76 123.39 33.21 123.39 38.43 125.75 40.75 128.01"/><path class="cls-6" d="M15.56,48.89,12.42,63.66l-2.6-3,14.79.87a1.76,1.76,0,0,1,0,3.52l-14.79.87a2.49,2.49,0,0,1-2.63-2.34,1.5,1.5,0,0,1,0-.3l0-.35,1-15.06a3.7,3.7,0,1,1,7.39.5A4.34,4.34,0,0,1,15.56,48.89Z"/><path class="cls-4" d="M21.27,39h-2.8A10.48,10.48,0,0,0,8,49.49v.89H32.63A11.36,11.36,0,0,0,21.27,39Z"/><line class="cls-8" x1="45.02" x2="85.89" y1="114.1" y2="114.1"/><polygon class="cls-9" points="47.21 121.58 34.26 114.09 47.21 106.62 47.21 121.58"/><polygon class="cls-9" points="83.7 121.58 96.65 114.09 83.7 106.62 83.7 121.58"/><path class="cls-9" d="M49.86,100c-.15,0-.29-.24-.43-.71a4.44,4.44,0,0,1-.2-1.1,1.06,1.06,0,0,1,.07-.5l5.67-7a3.32,3.32,0,0,0,.86-2,1.76,1.76,0,0,0-.59-1.46,2.07,2.07,0,0,0-1.36-.47,3.36,3.36,0,0,0-1.33.24,7.78,7.78,0,0,0-.93.49,1.35,1.35,0,0,1-.5.23,1.11,1.11,0,0,1-.89-.54,1.74,1.74,0,0,1-.39-1c0-.62.45-1.12,1.37-1.5a8.14,8.14,0,0,1,3.09-.56,5,5,0,0,1,3.6,1.21,4.17,4.17,0,0,1,1.29,3.19,5.68,5.68,0,0,1-1.37,3.65L53.6,97.38h5.19c.44,0,.67.37.67,1.12v.38c0,.75-.23,1.12-.67,1.12Z"/><path class="cls-9" d="M61.88,99.33V92.22a15.27,15.27,0,0,0-.13-2.36,7.3,7.3,0,0,1-.14-.81c0-.23.3-.41.91-.53a7.67,7.67,0,0,1,1.36-.18,1.3,1.3,0,0,1,.59.09.61.61,0,0,1,.24.28,3.05,3.05,0,0,1,.13.31,3.3,3.3,0,0,1,.1.42,2.78,2.78,0,0,0,.08.35,4.58,4.58,0,0,1,1.42-1.21,4,4,0,0,1,1.9-.49,2.81,2.81,0,0,1,3,1.7,4.72,4.72,0,0,1,1.48-1.21,4.2,4.2,0,0,1,2-.49,3.17,3.17,0,0,1,2.48.89,4,4,0,0,1,.8,2.74v7.61c0,.48-.45.71-1.35.71h-.63c-.89,0-1.34-.23-1.34-.71V92.22c0-.93-.44-1.39-1.33-1.39a2,2,0,0,0-1.77,1.3v7.2c0,.48-.44.71-1.34.71h-.63c-.9,0-1.35-.23-1.35-.71V92.22c0-.93-.44-1.39-1.32-1.39a2,2,0,0,0-1.77,1.3v7.2c0,.48-.45.71-1.35.71h-.62C62.33,100,61.88,99.81,61.88,99.33Z"/><rect class="cls-10" height="128" width="128"/></svg>